<mxfile host="app.diagrams.net" modified="2021-05-11T05:52:57.992Z" agent="5.0 (Macintosh; Intel Mac OS X 10_15_7) AppleWebKit/537.36 (KHTML, like Gecko) Chrome/90.0.4430.93 Safari/537.36" etag="-ooNXfhpLKXSu50OPEBV" version="14.6.11" type="github">
  <diagram name="Page-1" id="8ce9d11a-91a2-4d17-14d8-a56ed91bf033">
    <mxGraphModel dx="2066" dy="1129" grid="1" gridSize="10" guides="1" tooltips="1" connect="1" arrows="1" fold="1" page="1" pageScale="1" pageWidth="2336" pageHeight="1654" background="#ffffff" math="0" shadow="0">
      <root>
        <mxCell id="0" />
        <mxCell id="1" parent="0" />
        <mxCell id="1K0jhtz1pSHgYsICFTar-2" value="G_CREATED" style="ellipse;whiteSpace=wrap;html=1;" vertex="1" parent="1">
          <mxGeometry x="345" y="920" width="130" height="90" as="geometry" />
        </mxCell>
        <mxCell id="1K0jhtz1pSHgYsICFTar-3" value="MS_CREATED" style="ellipse;whiteSpace=wrap;html=1;" vertex="1" parent="1">
          <mxGeometry x="1215" y="920" width="130" height="90" as="geometry" />
        </mxCell>
        <mxCell id="1K0jhtz1pSHgYsICFTar-4" value="SYNCRONIZED" style="ellipse;whiteSpace=wrap;html=1;" vertex="1" parent="1">
          <mxGeometry x="785" y="630" width="120" height="80" as="geometry" />
        </mxCell>
        <mxCell id="1K0jhtz1pSHgYsICFTar-5" value="" style="endArrow=classic;html=1;entryX=0.5;entryY=1;entryDx=0;entryDy=0;exitX=0.5;exitY=0;exitDx=0;exitDy=0;" edge="1" parent="1" source="1K0jhtz1pSHgYsICFTar-6" target="1K0jhtz1pSHgYsICFTar-2">
          <mxGeometry width="50" height="50" relative="1" as="geometry">
            <mxPoint x="405" y="1080" as="sourcePoint" />
            <mxPoint x="455" y="1030" as="targetPoint" />
          </mxGeometry>
        </mxCell>
        <mxCell id="1K0jhtz1pSHgYsICFTar-6" value="Google Create Event" style="text;html=1;strokeColor=none;fillColor=none;align=center;verticalAlign=middle;whiteSpace=wrap;rounded=0;" vertex="1" parent="1">
          <mxGeometry x="330" y="1070" width="160" height="40" as="geometry" />
        </mxCell>
        <mxCell id="1K0jhtz1pSHgYsICFTar-7" value="MS Create Event" style="text;html=1;strokeColor=none;fillColor=none;align=center;verticalAlign=middle;whiteSpace=wrap;rounded=0;" vertex="1" parent="1">
          <mxGeometry x="1205" y="1070" width="150" height="40" as="geometry" />
        </mxCell>
        <mxCell id="1K0jhtz1pSHgYsICFTar-8" value="" style="endArrow=classic;html=1;exitX=0.5;exitY=0;exitDx=0;exitDy=0;entryX=0.5;entryY=1;entryDx=0;entryDy=0;" edge="1" parent="1" source="1K0jhtz1pSHgYsICFTar-7" target="1K0jhtz1pSHgYsICFTar-3">
          <mxGeometry width="50" height="50" relative="1" as="geometry">
            <mxPoint x="845" y="930" as="sourcePoint" />
            <mxPoint x="895" y="880" as="targetPoint" />
          </mxGeometry>
        </mxCell>
        <mxCell id="1K0jhtz1pSHgYsICFTar-9" value="MS_SYNC_CREATE" style="ellipse;whiteSpace=wrap;html=1;" vertex="1" parent="1">
          <mxGeometry x="605" y="925" width="140" height="80" as="geometry" />
        </mxCell>
        <mxCell id="1K0jhtz1pSHgYsICFTar-10" value="" style="endArrow=classic;html=1;" edge="1" parent="1" source="1K0jhtz1pSHgYsICFTar-2" target="1K0jhtz1pSHgYsICFTar-9">
          <mxGeometry width="50" height="50" relative="1" as="geometry">
            <mxPoint x="785" y="930" as="sourcePoint" />
            <mxPoint x="835" y="880" as="targetPoint" />
          </mxGeometry>
        </mxCell>
        <mxCell id="1K0jhtz1pSHgYsICFTar-11" value="Create Event in MS" style="edgeLabel;html=1;align=center;verticalAlign=middle;resizable=0;points=[];" vertex="1" connectable="0" parent="1K0jhtz1pSHgYsICFTar-10">
          <mxGeometry x="-0.0298" y="-2" relative="1" as="geometry">
            <mxPoint as="offset" />
          </mxGeometry>
        </mxCell>
        <mxCell id="1K0jhtz1pSHgYsICFTar-12" value="MS_SYNC_CREATED" style="ellipse;whiteSpace=wrap;html=1;" vertex="1" parent="1">
          <mxGeometry x="605" y="790" width="140" height="80" as="geometry" />
        </mxCell>
        <mxCell id="1K0jhtz1pSHgYsICFTar-13" value="" style="endArrow=classic;html=1;exitX=0.5;exitY=0;exitDx=0;exitDy=0;entryX=0.5;entryY=1;entryDx=0;entryDy=0;" edge="1" parent="1" source="1K0jhtz1pSHgYsICFTar-9" target="1K0jhtz1pSHgYsICFTar-12">
          <mxGeometry width="50" height="50" relative="1" as="geometry">
            <mxPoint x="785" y="930" as="sourcePoint" />
            <mxPoint x="835" y="880" as="targetPoint" />
          </mxGeometry>
        </mxCell>
        <mxCell id="1K0jhtz1pSHgYsICFTar-15" value="Get notifiication that Event was created" style="edgeLabel;html=1;align=center;verticalAlign=middle;resizable=0;points=[];" vertex="1" connectable="0" parent="1K0jhtz1pSHgYsICFTar-13">
          <mxGeometry x="0.0545" y="1" relative="1" as="geometry">
            <mxPoint as="offset" />
          </mxGeometry>
        </mxCell>
        <mxCell id="1K0jhtz1pSHgYsICFTar-14" value="" style="endArrow=classic;html=1;exitX=0.5;exitY=0;exitDx=0;exitDy=0;entryX=0;entryY=1;entryDx=0;entryDy=0;" edge="1" parent="1" source="1K0jhtz1pSHgYsICFTar-12" target="1K0jhtz1pSHgYsICFTar-4">
          <mxGeometry width="50" height="50" relative="1" as="geometry">
            <mxPoint x="785" y="930" as="sourcePoint" />
            <mxPoint x="835" y="880" as="targetPoint" />
          </mxGeometry>
        </mxCell>
        <mxCell id="1K0jhtz1pSHgYsICFTar-16" value="Event was synchronized" style="edgeLabel;html=1;align=center;verticalAlign=middle;resizable=0;points=[];" vertex="1" connectable="0" parent="1K0jhtz1pSHgYsICFTar-14">
          <mxGeometry x="0.0276" relative="1" as="geometry">
            <mxPoint as="offset" />
          </mxGeometry>
        </mxCell>
        <mxCell id="1K0jhtz1pSHgYsICFTar-17" value="G_SYNC_CREATE" style="ellipse;whiteSpace=wrap;html=1;" vertex="1" parent="1">
          <mxGeometry x="955" y="925" width="120" height="80" as="geometry" />
        </mxCell>
        <mxCell id="1K0jhtz1pSHgYsICFTar-18" value="" style="endArrow=classic;html=1;exitX=0;exitY=0.5;exitDx=0;exitDy=0;" edge="1" parent="1" source="1K0jhtz1pSHgYsICFTar-3" target="1K0jhtz1pSHgYsICFTar-17">
          <mxGeometry width="50" height="50" relative="1" as="geometry">
            <mxPoint x="785" y="930" as="sourcePoint" />
            <mxPoint x="835" y="880" as="targetPoint" />
          </mxGeometry>
        </mxCell>
        <mxCell id="1K0jhtz1pSHgYsICFTar-19" value="Create Event in Google" style="edgeLabel;html=1;align=center;verticalAlign=middle;resizable=0;points=[];" vertex="1" connectable="0" parent="1K0jhtz1pSHgYsICFTar-18">
          <mxGeometry x="0.0875" y="-3" relative="1" as="geometry">
            <mxPoint as="offset" />
          </mxGeometry>
        </mxCell>
        <mxCell id="1K0jhtz1pSHgYsICFTar-20" value="G_SYNC_CREATE" style="ellipse;whiteSpace=wrap;html=1;" vertex="1" parent="1">
          <mxGeometry x="955" y="790" width="120" height="80" as="geometry" />
        </mxCell>
        <mxCell id="1K0jhtz1pSHgYsICFTar-21" value="" style="endArrow=classic;html=1;exitX=0.5;exitY=0;exitDx=0;exitDy=0;entryX=0.5;entryY=1;entryDx=0;entryDy=0;" edge="1" parent="1" source="1K0jhtz1pSHgYsICFTar-17" target="1K0jhtz1pSHgYsICFTar-20">
          <mxGeometry width="50" height="50" relative="1" as="geometry">
            <mxPoint x="1065" y="930" as="sourcePoint" />
            <mxPoint x="1115" y="880" as="targetPoint" />
          </mxGeometry>
        </mxCell>
        <mxCell id="1K0jhtz1pSHgYsICFTar-22" value="Get notification that Event was created" style="edgeLabel;html=1;align=center;verticalAlign=middle;resizable=0;points=[];" vertex="1" connectable="0" parent="1K0jhtz1pSHgYsICFTar-21">
          <mxGeometry x="0.0182" y="2" relative="1" as="geometry">
            <mxPoint as="offset" />
          </mxGeometry>
        </mxCell>
        <mxCell id="1K0jhtz1pSHgYsICFTar-23" value="" style="endArrow=classic;html=1;" edge="1" parent="1" source="1K0jhtz1pSHgYsICFTar-20" target="1K0jhtz1pSHgYsICFTar-4">
          <mxGeometry width="50" height="50" relative="1" as="geometry">
            <mxPoint x="1065" y="930" as="sourcePoint" />
            <mxPoint x="1115" y="880" as="targetPoint" />
          </mxGeometry>
        </mxCell>
        <mxCell id="1K0jhtz1pSHgYsICFTar-24" value="Event was synchronized" style="edgeLabel;html=1;align=center;verticalAlign=middle;resizable=0;points=[];" vertex="1" connectable="0" parent="1K0jhtz1pSHgYsICFTar-23">
          <mxGeometry x="0.1116" y="-2" relative="1" as="geometry">
            <mxPoint as="offset" />
          </mxGeometry>
        </mxCell>
        <mxCell id="1K0jhtz1pSHgYsICFTar-25" value="G_UPDATE" style="ellipse;whiteSpace=wrap;html=1;" vertex="1" parent="1">
          <mxGeometry x="520" y="630" width="120" height="80" as="geometry" />
        </mxCell>
        <mxCell id="1K0jhtz1pSHgYsICFTar-26" value="" style="endArrow=classic;html=1;exitX=0;exitY=0.5;exitDx=0;exitDy=0;entryX=1;entryY=0.5;entryDx=0;entryDy=0;" edge="1" parent="1" source="1K0jhtz1pSHgYsICFTar-4" target="1K0jhtz1pSHgYsICFTar-25">
          <mxGeometry width="50" height="50" relative="1" as="geometry">
            <mxPoint x="730" y="660" as="sourcePoint" />
            <mxPoint x="780" y="610" as="targetPoint" />
          </mxGeometry>
        </mxCell>
        <mxCell id="1K0jhtz1pSHgYsICFTar-27" value="Notification that Google&lt;br&gt;event was updated" style="edgeLabel;html=1;align=center;verticalAlign=middle;resizable=0;points=[];" vertex="1" connectable="0" parent="1K0jhtz1pSHgYsICFTar-26">
          <mxGeometry x="-0.2276" y="-1" relative="1" as="geometry">
            <mxPoint x="-9" y="1" as="offset" />
          </mxGeometry>
        </mxCell>
        <mxCell id="1K0jhtz1pSHgYsICFTar-28" value="MS_SYNC_UPDATE" style="ellipse;whiteSpace=wrap;html=1;" vertex="1" parent="1">
          <mxGeometry x="280" y="630" width="120" height="80" as="geometry" />
        </mxCell>
        <mxCell id="1K0jhtz1pSHgYsICFTar-29" value="" style="endArrow=classic;html=1;exitX=0;exitY=0.5;exitDx=0;exitDy=0;" edge="1" parent="1" source="1K0jhtz1pSHgYsICFTar-25" target="1K0jhtz1pSHgYsICFTar-28">
          <mxGeometry width="50" height="50" relative="1" as="geometry">
            <mxPoint x="730" y="660" as="sourcePoint" />
            <mxPoint x="500" y="650" as="targetPoint" />
          </mxGeometry>
        </mxCell>
        <mxCell id="1K0jhtz1pSHgYsICFTar-30" value="Update MS&lt;br&gt;event" style="edgeLabel;html=1;align=center;verticalAlign=middle;resizable=0;points=[];" vertex="1" connectable="0" parent="1K0jhtz1pSHgYsICFTar-29">
          <mxGeometry x="0.1" y="1" relative="1" as="geometry">
            <mxPoint as="offset" />
          </mxGeometry>
        </mxCell>
        <mxCell id="1K0jhtz1pSHgYsICFTar-31" value="MS_SYNC_UPDATED" style="ellipse;whiteSpace=wrap;html=1;" vertex="1" parent="1">
          <mxGeometry x="270" y="460" width="140" height="80" as="geometry" />
        </mxCell>
        <mxCell id="1K0jhtz1pSHgYsICFTar-32" value="" style="endArrow=classic;html=1;exitX=0.5;exitY=0;exitDx=0;exitDy=0;entryX=0.5;entryY=1;entryDx=0;entryDy=0;" edge="1" parent="1" source="1K0jhtz1pSHgYsICFTar-28" target="1K0jhtz1pSHgYsICFTar-31">
          <mxGeometry width="50" height="50" relative="1" as="geometry">
            <mxPoint x="730" y="650" as="sourcePoint" />
            <mxPoint x="780" y="600" as="targetPoint" />
          </mxGeometry>
        </mxCell>
        <mxCell id="1K0jhtz1pSHgYsICFTar-33" value="Get notification that&lt;br&gt;event was updated" style="edgeLabel;html=1;align=center;verticalAlign=middle;resizable=0;points=[];" vertex="1" connectable="0" parent="1K0jhtz1pSHgYsICFTar-32">
          <mxGeometry x="0.1333" y="1" relative="1" as="geometry">
            <mxPoint as="offset" />
          </mxGeometry>
        </mxCell>
        <mxCell id="1K0jhtz1pSHgYsICFTar-34" value="" style="endArrow=classic;html=1;exitX=1;exitY=0.5;exitDx=0;exitDy=0;entryX=0;entryY=0;entryDx=0;entryDy=0;" edge="1" parent="1" source="1K0jhtz1pSHgYsICFTar-31" target="1K0jhtz1pSHgYsICFTar-4">
          <mxGeometry width="50" height="50" relative="1" as="geometry">
            <mxPoint x="730" y="640" as="sourcePoint" />
            <mxPoint x="780" y="590" as="targetPoint" />
          </mxGeometry>
        </mxCell>
        <mxCell id="1K0jhtz1pSHgYsICFTar-35" value="MS_UPDATE" style="ellipse;whiteSpace=wrap;html=1;" vertex="1" parent="1">
          <mxGeometry x="1040" y="630" width="120" height="80" as="geometry" />
        </mxCell>
        <mxCell id="1K0jhtz1pSHgYsICFTar-36" value="" style="endArrow=classic;html=1;exitX=1;exitY=0.5;exitDx=0;exitDy=0;entryX=0;entryY=0.5;entryDx=0;entryDy=0;" edge="1" parent="1" source="1K0jhtz1pSHgYsICFTar-4" target="1K0jhtz1pSHgYsICFTar-35">
          <mxGeometry width="50" height="50" relative="1" as="geometry">
            <mxPoint x="730" y="690" as="sourcePoint" />
            <mxPoint x="780" y="640" as="targetPoint" />
          </mxGeometry>
        </mxCell>
        <mxCell id="1K0jhtz1pSHgYsICFTar-38" value="Noification that MS&lt;br&gt;event was updated" style="edgeLabel;html=1;align=center;verticalAlign=middle;resizable=0;points=[];" vertex="1" connectable="0" parent="1K0jhtz1pSHgYsICFTar-36">
          <mxGeometry x="-0.0815" y="1" relative="1" as="geometry">
            <mxPoint as="offset" />
          </mxGeometry>
        </mxCell>
        <mxCell id="1K0jhtz1pSHgYsICFTar-37" value="G_SYNC_UPDATE" style="ellipse;whiteSpace=wrap;html=1;" vertex="1" parent="1">
          <mxGeometry x="1290" y="630" width="120" height="80" as="geometry" />
        </mxCell>
        <mxCell id="1K0jhtz1pSHgYsICFTar-39" value="" style="endArrow=classic;html=1;exitX=1;exitY=0.5;exitDx=0;exitDy=0;entryX=0;entryY=0.5;entryDx=0;entryDy=0;" edge="1" parent="1" source="1K0jhtz1pSHgYsICFTar-35" target="1K0jhtz1pSHgYsICFTar-37">
          <mxGeometry width="50" height="50" relative="1" as="geometry">
            <mxPoint x="730" y="690" as="sourcePoint" />
            <mxPoint x="1030" y="470" as="targetPoint" />
          </mxGeometry>
        </mxCell>
        <mxCell id="1K0jhtz1pSHgYsICFTar-40" value="Update Google&lt;br&gt;event" style="edgeLabel;html=1;align=center;verticalAlign=middle;resizable=0;points=[];" vertex="1" connectable="0" parent="1K0jhtz1pSHgYsICFTar-39">
          <mxGeometry x="-0.2769" relative="1" as="geometry">
            <mxPoint x="13" as="offset" />
          </mxGeometry>
        </mxCell>
        <mxCell id="1K0jhtz1pSHgYsICFTar-41" value="G_SYNC_UPDATED" style="ellipse;whiteSpace=wrap;html=1;" vertex="1" parent="1">
          <mxGeometry x="1290" y="480" width="120" height="80" as="geometry" />
        </mxCell>
        <mxCell id="1K0jhtz1pSHgYsICFTar-42" value="" style="endArrow=classic;html=1;exitX=0.5;exitY=0;exitDx=0;exitDy=0;entryX=0.5;entryY=1;entryDx=0;entryDy=0;" edge="1" parent="1" source="1K0jhtz1pSHgYsICFTar-37" target="1K0jhtz1pSHgYsICFTar-41">
          <mxGeometry width="50" height="50" relative="1" as="geometry">
            <mxPoint x="1100" y="470" as="sourcePoint" />
            <mxPoint x="1150" y="420" as="targetPoint" />
          </mxGeometry>
        </mxCell>
        <mxCell id="1K0jhtz1pSHgYsICFTar-43" value="Get notification that&lt;br&gt;event was updated" style="edgeLabel;html=1;align=center;verticalAlign=middle;resizable=0;points=[];" vertex="1" connectable="0" parent="1K0jhtz1pSHgYsICFTar-42">
          <mxGeometry x="-0.0571" y="-2" relative="1" as="geometry">
            <mxPoint as="offset" />
          </mxGeometry>
        </mxCell>
        <mxCell id="1K0jhtz1pSHgYsICFTar-44" value="" style="endArrow=classic;html=1;exitX=0;exitY=0.5;exitDx=0;exitDy=0;entryX=1;entryY=0;entryDx=0;entryDy=0;" edge="1" parent="1" source="1K0jhtz1pSHgYsICFTar-41" target="1K0jhtz1pSHgYsICFTar-4">
          <mxGeometry width="50" height="50" relative="1" as="geometry">
            <mxPoint x="980" y="360" as="sourcePoint" />
            <mxPoint x="1030" y="310" as="targetPoint" />
          </mxGeometry>
        </mxCell>
      </root>
    </mxGraphModel>
  </diagram>
</mxfile>
